<svg xmlns="http://www.w3.org/2000/svg" width="1200" height="383.031" viewBox="0 0 1200 383.031">
    <defs>
        <style>
            .cls-4{fill:#895737}.cls-11,.cls-15,.cls-16,.cls-20,.cls-21,.cls-22,.cls-4,.cls-7{fill-rule:evenodd}.cls-7{fill:#285364}.cls-11{fill:#41809f}.cls-24{fill:#39577b}.cls-15{fill:#d6effd}.cls-16{fill:#f5988a}.cls-20{fill:#283c52}.cls-21{fill:#666}
        </style>
    </defs>
    <g id="boy-big" transform="translate(-374)">
        <g id="fondo-naranja-con-manchas" transform="translate(-48)">
            <path id="Background" fill="#ff6859" d="M0 0H1200V383H0z" transform="translate(422)"/>
            <path id="Intersección_2" fill="#bb7f87" d="M-4513.286 493.8a102.39 102.39 0 0 1-6.516-19.449c-10.009-44.252-29.933-85.837-60.276-119.567a113.1 113.1 0 0 1-20.11-31.714 111.706 111.706 0 0 1-4.453-73.153h361.741a93.588 93.588 0 0 1 6.513 12.256 103.354 103.354 0 0 1 7.25 59.08 93.774 93.774 0 0 0 16.974 72.191 79.381 79.381 0 0 1 8.826 14.976c17.772 39.418-.475 87.284-39.969 104.884a78.812 78.812 0 0 1-39.875 6.493c-29.79-2.923-59.53 4.625-85.305 19.844a102.78 102.78 0 0 1-9.87 5.128 99.631 99.631 0 0 1-41.21 8.861c-39.034.001-76.882-22.441-93.72-59.83z" transform="translate(5649 -249.919)"/>
            <path id="Intersección_1" fill="#f19895" d="M-5040.729 444.572c-22.546-12.391-38.954-35.413-41.33-62.476a78.794 78.794 0 0 1 6.843-39.817c12.46-27.216 15.007-57.792 9.009-87.117a102.958 102.958 0 0 1-1.636-11c-5.2-55.35 36.758-105.9 92.119-110.979a102.293 102.293 0 0 1 20.511.172c45.1 4.943 90.906-.357 132.677-18.065A113.062 113.062 0 0 1-4786 106.6c60.244-4.1 114.887 42.7 120.189 102.849a112.845 112.845 0 0 1-37.749 94.606c-25.219 22.314-41.989 52.426-49.356 85.283-4.976 22.195-17.669 41.193-34.1 55.236z" transform="translate(5709 -61.571)"/>
        </g>
        <g id="Boy" transform="translate(207.229 -222.671)">
            <path id="Trazado_24" d="M989.986 816.065l9.9.294 9.17 31.352-9.382 1.029-9.691-32.676z" class="cls-4" transform="translate(5.703 -391.583)"/>
            <path id="Trazado_25" fill="#f7a28f" fill-rule="evenodd" d="M1120.056 310.42c-.932-1.781-1.391-3.193-2.624-2.216-2.4 1.9.958 9.053 3.44 10.666.108.07.311.2.562.353.887 5.907 3.672 10.568 9.689 12.911-.082 3.3.5 5.54-2.048 8.305-3.482 3.788-29.193 14.918-25.5 15.251 9.82 28.316 67.577 32.674 70.681-.354-1.565-2.2-26.725-14.259-28.26-27.1 2.26-1.746 4.117-4.807 5.609-8.285a10.663 10.663 0 0 0 1.9-.992c2.562-1.612 6.276-8.764 3.971-10.666-.737-.605-1.681.144-2.534 1.226.345-1.447.633-2.814.866-4.039 3.005-15.787-33.51-30.686-35.743 4.939z" transform="translate(-192.408 -35.665)"/>
            <path id="Trazado_26" fill="#00203f" fill-rule="evenodd" d="M1368.231 937.023c-8.849 0-16.117 3.8-16.233 8.491s6.962 8.491 15.811 8.491 16.116-3.8 16.233-8.491-6.962-8.491-15.811-8.491z" transform="translate(-474.535 -473.186)"/>
            <path id="Trazado_27" d="M1322.3 491.914c-17.858 35.83-73.192 155.675-6.344 155.675 13.609 0 33.358-72.072 30.265-85.026-3.751-15.71 6.066-16.994-8.469-46.654-3.587-7.319-8.179-21.526-15.452-23.994z" class="cls-7" transform="translate(-417.214 -172.899)"/>
            <path id="Trazado_28" fill="#d55147" fill-rule="evenodd" d="M1327.024 838.417l-8.711 59.291-58.138-10.154 11.082-61.18 55.767 12.043z" transform="translate(-390.819 -398.538)"/>
            <path id="Trazado_29" fill="#703129" fill-rule="evenodd" d="M1468.646 826.374l-11.082 61.18-5.585-5.9 10.966-54.368 5.7-.915z" transform="translate(-588.208 -398.538)"/>
            <path id="Trazado_32" fill="#60c6d0" fill-rule="evenodd" d="M1088.819 966.3l6.768-107.719c4.381 35.9 7.181 71.416 10.087 107.719 0 0 40.927-.105 41.041 0 .253-22.491.275-44.35.552-56.833.351-15.931.46-31.877.171-47.789-.251-13.848-.779-27.771-1.971-41.539l.016.009-.339-3.54c-1.006-10.48-2.469-22.433-5.622-32.363-1.7-5.346-4.985-13.491-11.124-13.8-4.017-.2-8.169-.148-12.2-.161q-10.043-.031-20.09.027-11.37.049-22.741.171c-2.507.028-5.014.059-7.522.11-1.251.026-3.854-.3-4.543 1.29-15.493 35.744-16.49 127.139-14.721 194.415.269.22 42.238.003 42.238.003z" transform="translate(-149.116 -360.695)"/>
            <path id="Trazado_33" d="M1148.455 826.855h-91.924l-.5 20.3h91.924l.505-20.3z" class="cls-11" transform="translate(-152.894 -398.862)"/>
            <path id="Trazado_34" fill="#305f72" fill-rule="evenodd" d="M1030.272 588.558c-24.106-3.429 2.035-117.658 4.055-121.626l28.881-12.048c-1.1 4.026 4.378 24.011 14.214 23.766 9.824.245 16.3-19.74 15.4-23.766l28.283 12.048c1.822 3.968 28.2 121.879 3.924 125.306-1.292-.1-93.456-3.782-94.753-3.68z" transform="translate(-129.24 -147.917)"/>
            <path id="Trazado_35" fill="#41809f" d="M1230.161 985.187a.538.538 0 0 0 .657.436.613.613 0 0 0 .389-.735l-7.138-30.995a.538.538 0 0 0-.657-.436.614.614 0 0 0-.39.735l7.138 30.995z" transform="translate(-284.212 -484.26)"/>
            <path id="Trazado_36" fill="#39577b" fill-rule="evenodd" d="M1271.968 577.245h17.132l.918-36.96h-24.227l-.919 36.96z" transform="translate(-355.181 -205.532)"/>
            <path id="Trazado_37" d="M1278.424 579.439h13.48l.817-32.872h-13.48l-.817 32.872zm5.653-5.995l.519-20.883h2.62l-.519 20.883zm-12.747 5.995h5.151l.817-32.872h-5.151l-.818 32.872z" class="cls-15" transform="translate(-359.76 -209.77)"/>
            <path id="Trazado_38" d="M1400.8 991.772c-.668 2.377 7.768 7.274 11.558 7.274 4.459 0 7.669-1.9 9.38-6.733.606-1.71 1.429-5-.034-6.173-2.072-1.661-2.295 1.285-2.147-1.161.1-1.723-2.6-2.6-3.011-.622-.3.068.366-2.252-1.522-2.865-5.013-1.627-4.114 13.663-8.657 11.883-.167-1.049 1.794-6.977 1.93-9.237.274-4.575-8.93 12.736-7.5 7.635z" class="cls-16" transform="translate(-527.161 -503.104)"/>
            <path id="Trazado_39" fill="#bb7f87" fill-rule="evenodd" d="M1138.673 471.4l2.318-.967 49.687 151.1-12.51 2.467-39.5-152.606z" transform="translate(-219.145 -158.404)"/>
            <path id="Trazado_40" fill="#ec8059" fill-rule="evenodd" d="M1200.462 414.112c5.907 2.36 14.947-2.17 15.405-3.766-.442 1.4-1.263 20.976-14.932 8.177.152-1.268.04-2.606.079-4.184q-.281-.111-.552-.227z" transform="translate(-262.301 -117.87)"/>
            <path id="Trazado_41" fill="#ec8059" d="M1228.863 340.685a.808.808 0 0 0-.76-.875.858.858 0 0 0-.8.875c-.01.425-.143 1.479-.3 2.574-.181 1.232-.395 2.5-.514 2.992a7.24 7.24 0 0 0-.179 1.7 2.084 2.084 0 0 0 .478 1.428 2.961 2.961 0 0 0 1.75.951 3.8 3.8 0 0 0 1.911-.367.927.927 0 0 0 .493-1.12.744.744 0 0 0-.988-.52 2.579 2.579 0 0 1-1.209.273 1.644 1.644 0 0 1-.911-.542c-.032-.033.04-.063.035-.205a5.227 5.227 0 0 1 .123-1.19c.134-.554.363-1.891.551-3.17.173-1.177.315-2.322.327-2.806z" transform="translate(-284.923 -70.284)"/>
            <path id="Trazado_42" d="M1213.431 337.02c-.52 0-.959.712-.98 1.59s.381 1.588.9 1.588.957-.711.979-1.588-.381-1.59-.9-1.59z" class="cls-20" transform="translate(-264.25 -68.401)"/>
            <path id="Trazado_43" d="M1255.224 337.02c-.519 0-.958.712-.98 1.59s.381 1.588.9 1.588.958-.711.98-1.588-.381-1.59-.9-1.59z" class="cls-20" transform="translate(-318.196 -68.401)"/>
            <path id="Trazado_44" d="M1161.856 254.811c-2.191-1.777-7.16-11.813-1.432-17.845.729-.767-.531-.531 1.614 1.443 1.383 1.272 7.849 5.444 6.971 3.839l-3.282-6c-.466-.853 10.719-1.516 20.482 2.925.864-2.544-3.134-3.682 2.595-1.217 13.87 5.968 13.394 22.025 9.316 34.885-.314.463-7.411 11.531-3.961 2.772 4.817-12.229-4.7-22.06-13.843-15.7-2.132 1.484-5.2-.965-7.838-2.242-5.991 2.155-10.423 8-9.186 19.605.109 1.021-1.038-.457-1.1-.6-2.384-5.726-3.788-16.7-.34-21.869z" class="cls-20" transform="translate(-234.641)"/>
            <path id="Trazado_45" d="M1214.7 378.348c1.4 1.506 9.223 4.153 11.977.841.349-.421-4.181 9.692-10.9 2.385-.55-.6-2.17-4.4-1.079-3.226z" class="cls-15" transform="translate(-277.157 -96.132)"/>
            <path id="Trazado_46" d="M1280.541 456.6c-15.259 6.984-10.949 23.508-13.09 27.291a4.515 4.515 0 0 0 2.515 6.532c-.743-3.612-1.179-3.547-.308-7.748.937-4.522 3.045-3.18 2.979-9.478-.056-5.352 7.4-10.776 7.649-11.407a26.118 26.118 0 0 0 .255-5.19z" class="cls-21" transform="translate(-346.331 -149.073)"/>
            <path id="Trazado_47" d="M1272.787 516.376c-3.434 0-6.34 4.928-6.491 11.008s2.51 11.008 5.944 11.008 6.34-4.928 6.492-11.008-2.51-11.008-5.945-11.008z" class="cls-22" transform="translate(-344.311 -189.402)"/>
            <path id="Trazado_48" d="M1175.316 527.873c-4.069-2.86-10.313-1.1-13.944 3.938s-3.276 11.434.792 14.294 10.313 1.1 13.945-3.939 3.277-11.434-.793-14.293z" class="cls-22" transform="translate(-212.955 -196.234)"/>
            <path id="Trazado_49" fill="#30261a" fill-rule="evenodd" d="M1274.624 528.421c-1.75 0-3.243 2.991-3.334 6.682s1.252 6.682 3 6.682 3.243-2.991 3.335-6.682-1.253-6.682-3-6.682z" transform="translate(-344.656 -197.528)"/>
            <path id="Trazado_50" d="M1158.034 475.261c2.538 7.072 1.139 10.571-3.828 14.717a5.466 5.466 0 0 0-1.642-.251c-3.332 0-6.106 2.972-6.2 6.637-.1 3.825 2.4 6.637 5.868 6.637 3.331 0 6.106-2.971 6.2-6.637a6.967 6.967 0 0 0-.875-3.6 4.456 4.456 0 0 1 .075-1.174c3.774-7.349 8.34-14.707 2.088-23.6l-.181 7.268z" class="cls-21" transform="translate(-193.511 -156.761)"/>
            <path id="Trazado_51" d="M1242.846 427.5c-5.312 20.456 7.909 19.662 7.48 36.932-1.791-6.294-28.034-17.366-23.813-28.1 2.251-5.725 19.047-19.294 16.332-8.832z" class="cls-7" transform="translate(-304.211 -126.847)"/>
            <path id="Trazado_52" d="M1145.156 459.154c1.444-.958.819-1.931.867-3.882.1-4.168 2.563-6.625 4.99-9.264 6.916-7.519 14.353-9.454 7.405-19.736-.015-.021-4.191-6.858-2.791-5.832 2.771 2.029 3.619 2.163 7 2.529a3.6 3.6 0 0 1 2.839 2.377c.954 3.266.112 2.216 3.474 3.629 1.7.715 1.527 4.581 1.687 6.458.509 5.991-3.083 14.922-8.449 16.71-4.044 1.347-13.365 3.543-15.094 8.714-.585-.151-.989-2.324-1.924-1.7z" class="cls-7" transform="translate(-201.024 -124.609)"/>
            <path id="Trazado_53" d="M1177.629 442.512a.555.555 0 0 0-.615-.512.6.6 0 0 0-.457.688c1.637 12.427-5.6 17.4-11.911 21.74-3.124 2.146-6.03 4.144-7.657 6.835a.652.652 0 0 0 .144.839.506.506 0 0 0 .75-.161c1.5-2.471 4.306-4.4 7.327-6.479 6.6-4.534 14.16-9.734 12.42-22.949z" class="cls-24" transform="translate(-211.649 -139.22)"/>
            <path id="Trazado_54" d="M1243.861 443.323a.571.571 0 0 0-.56-.583.581.581 0 0 0-.521.626 6.709 6.709 0 0 1-.242 1.52 10.839 10.839 0 0 0 .123 6.4c1.883 5.757 3.733 7.15 7.257 9.8.605.455 1.267.954 2.054 1.573 1.168.919 1.836 1.456 2.456 2.028s1.239 1.222 2.292 2.354a.5.5 0 0 0 .765-.016.658.658 0 0 0-.015-.855c-1.069-1.151-1.694-1.807-2.355-2.417s-1.346-1.161-2.52-2.085c-.712-.561-1.422-1.1-2.075-1.587-3.33-2.507-5.077-3.823-6.842-9.217a9.678 9.678 0 0 1-.089-5.686 7.413 7.413 0 0 0 .272-1.862z" class="cls-24" transform="translate(-316.178 -139.723)"/>
            <path id="Trazado_55" d="M1269.875 427.608a.655.655 0 0 0-.106-.849.5.5 0 0 0-.758.118c-4.757 7.041-3.019 10.742-1.134 14.755a22.108 22.108 0 0 1 1.738 4.571.541.541 0 0 0 .657.441.613.613 0 0 0 .393-.735 23.079 23.079 0 0 0-1.83-4.841c-1.718-3.658-3.3-7.032 1.04-13.461z" class="cls-24" transform="translate(-336.155 -128.86)"/>
            <path id="Trazado_56" d="M1173.85 696.393c-1.79 2.331-7.151 1.68-9.413-.985-.016-.019-1.661-1.5-1.716-1.526-.026-.256-4.6-5.286-6.555-5.286-2.169 0-9.081-.049-9.96 2.245-1.11 2.9-3.9 11.975-3.563 14.9.046.4 1.851.87 3.035-1.32 1.37-2.534-.541 1.877.775 2.255.047.255 1.795.694 1.795-.786 0 1.12 1.992 2.172 3.511-.956.677-1.393 4.4-1.431 5.33-.03a10.355 10.355 0 0 0 6.678 3.544c3.242 0 4.364-.452 6.835-.6 1.391-.084 8.247-.188 6.651-3.257-.046-.089-1.877-10.182-3.4-8.193z" class="cls-16" transform="translate(-207.109 -305.588)"/>
            <path id="Trazado_57" d="M1101.089 667.668c-6.6 0-11.958 7.895-11.958 17.634s5.354 17.634 11.958 17.634 11.957-7.9 11.957-17.634-5.354-17.634-11.957-17.634z" class="cls-11" transform="translate(-127.11 -291.469)"/>
            <path id="Trazado_58" d="M890.974 491.914c7.429 1.006 30.132 14.077 46.641 44.729 7.459 13.85 22.913 43.875 3.679 54.559-13.549 7.527-71.882 12.542-75.1-8.708-6.221-41.11-1.754-38.976 28.55-37.687 10.5.446-14.045-42.786-3.772-52.893z" class="cls-7" transform="translate(100.887 -172.899)"/>
            <path id="Trazado_59" fill="#e78543" fill-rule="evenodd" d="M1006.916 973.806l-15.91-65.261-55.739 9.47 17.2 65.672 54.452-9.881z" transform="translate(23.756 -453.974)"/>
            <path id="Trazado_60" d="M1122.55 937.651l3.768 63.317 13.429 2.355-16.81-64.192-.387-1.48z" class="cls-4" transform="translate(-163.527 -473.609)"/>
            <path id="Trazado_61" d="M991.547 960.679l-15.155-37.957 16.81 32.6 39.367-5.146-.825-36.852 3.953 41.587-44.15 5.764z" class="cls-4" transform="translate(-16.983 -457.201)"/>
            <path id="Trazado_74" d="M1307.464 1259.421c-8.03-4.912-2.568 1.4-6.141 1.41-4.552.017-3.119-6.828-5.75-1.853-.743 1.406-2.751-3.612-4.274-3.02-2.458 7.943-1.958-3.894-3.887 2.346-4.26 1.651-4.041-8.22-4.041 13.454 0 17.408 4.421-8.731 7.244 1.379 2.483 8.9 2.335-9.45 8.423.413 3.968 6.428 1.368-13.015 6.588-.031 2.006 4.992 1.084-9.271 3.464-1.147.666 2.273 1.123-10.758-1.125-12.014-.53-.3-.142-.719-.5-.937z" class="cls-15" transform="translate(-380.172 -688.318)"/>
            <path id="Trazado_75" d="M1099.136 1266.74c-8.03-4.911-2.568 1.4-6.142 1.41-4.552.017-3.12-6.828-5.75-1.853-.744 1.406-2.751-3.612-4.275-3.022-2.459 7.944-1.958-3.894-3.888 2.346-4.258 1.652-4.04-8.219-4.04 13.455 0 17.407 4.421-8.731 7.244 1.38 2.483 8.895 2.335-9.45 8.423.412 3.967 6.428 1.368-13.015 6.587-.03 2.007 4.991 1.085-9.271 3.465-1.148.667 2.273 1.123-10.757-1.125-12.014-.53-.3-.143-.719-.5-.937z" class="cls-15" transform="translate(-111.272 -693.256)"/>
        </g>
    </g>
</svg>
