<svg xmlns="http://www.w3.org/2000/svg" width="83.621" height="66.412" viewBox="0 0 83.621 66.412">
    <defs>
        <style>
            .cls-2{fill-rule:evenodd;fill:#f1eff0}.cls-5{fill:#fff}
        </style>
    </defs>
    <g id="logo-ies" transform="translate(-234.027 -633.096)">
        <path id="Trazado_3783" fill="#292526" fill-rule="evenodd" d="M255.448 710.958a6.86 6.86 0 0 1-6.861-6.863v-29.514a6.866 6.866 0 0 1 6.861-6.868h51.017a6.865 6.865 0 0 1 6.86 6.868V704.1a6.86 6.86 0 0 1-6.86 6.863h-51.017" transform="translate(-4.816 -11.45)"/>
        <path id="Trazado_3784" d="M254.221 709.106a6.867 6.867 0 0 1-6.863-6.87v-29.51a6.862 6.862 0 0 1 6.863-6.863h51.021a6.86 6.86 0 0 1 6.866 6.863v29.51a6.865 6.865 0 0 1-6.866 6.87h-51.021" class="cls-2" transform="translate(-4.409 -10.838)"/>
        <path id="Trazado_3785" fill="#3d4547" fill-rule="evenodd" d="M309.167 703.365a2.563 2.563 0 0 1-2.565 2.561h-47.243a2.559 2.559 0 0 1-2.559-2.561v-26.1a2.559 2.559 0 0 1 2.559-2.557H306.6a2.563 2.563 0 0 1 2.565 2.557v26.1" transform="translate(-7.533 -13.763)"/>
        <path id="Trazado_3786" fill="#2c3233" d="M291.017 682.2l-7.222 1.545-2.831.74-.764 4.744-5.8-6.989-5.583 1.982-.871 3.573 1.133 6.533.86 4.485-2.342 1.741-2.324 1.625 5.206 6.157h38.936a2.555 2.555 0 0 0 2.556-2.553v-15.532l-6.564-8.034-3.836 2.05-3.795.174-1.264.871-.481.131.831 3.136L298 690.75l-6.98-8.55" transform="translate(-10.335 -16.242)"/>
        <path id="Trazado_3787" d="M264.9 634.837a6.546 6.546 0 0 0-2.314-.463c-1.885 0-2.476 1.332-2.476 2.721a2.506 2.506 0 0 0 2.694 2.815 5.338 5.338 0 0 0 2.225-.559v1.419a9.174 9.174 0 0 1-2.91.419c-2.528 0-4.215-1.481-4.215-4.043s1.686-4.047 4.215-4.047a13.648 13.648 0 0 1 2.78.253v1.487z" class="cls-5" transform="translate(-7.898)"/>
        <path id="Trazado_3788" d="M271.793 637.143c0-1.229.542-2.77 2.012-2.77s2.01 1.541 2.01 2.77-.545 2.765-2.01 2.765-2.012-1.53-2.012-2.765zm-2.206 0c0 2.562 1.69 4.043 4.217 4.043s4.212-1.481 4.212-4.043-1.674-4.047-4.212-4.047-4.217 1.492-4.217 4.047z" class="cls-5" transform="translate(-11.762)"/>
        <path id="Trazado_3789" d="M284.118 633.378h2.08v6.433h3.5v1.283h-5.581v-7.716z" class="cls-5" transform="translate(-16.569 -.093)"/>
        <path id="Trazado_3790" d="M294.1 633.378h5.316v1.282h-3.239v1.876h2.658v1.157h-2.658v2.118h3.506v1.283H294.1v-7.716z" class="cls-5" transform="translate(-19.87 -.093)"/>
        <path id="Trazado_3791" d="M310.72 640.81a9.23 9.23 0 0 1-2.795.377c-2.528 0-4.219-1.481-4.219-4.043s1.692-4.047 4.219-4.047a13.662 13.662 0 0 1 2.779.253v1.487a6.591 6.591 0 0 0-2.311-.463c-1.889 0-2.479 1.332-2.479 2.721a2.512 2.512 0 0 0 2.722 2.815v-2.536h2.084v3.438z" class="cls-5" transform="translate(-23.048)"/>
        <path id="Trazado_3792" d="M316.691 633.378h2.083v7.716h-2.083v-7.716z" class="cls-5" transform="translate(-27.343 -.093)"/>
        <path id="Trazado_3793" d="M323.938 637.143c0-1.229.541-2.77 2.016-2.77 1.46 0 2 1.541 2 2.77s-.538 2.765-2 2.765c-1.476 0-2.016-1.53-2.016-2.765zm-2.208 0c0 2.562 1.693 4.043 4.225 4.043s4.207-1.481 4.207-4.043-1.682-4.047-4.207-4.047-4.225 1.492-4.225 4.047z" class="cls-5" transform="translate(-29.01)"/>
        <path id="Trazado_3794" d="M236.109 649.034v4.46c0 1.45.31 2.155 1.364 2.155.9 0 1.365-.531 1.365-1.959v-4.656h1.808v4.888c0 .678 0 3.008-3.213 3.008-1.917 0-3.406-.9-3.406-3.008v-4.888z" class="cls-5" transform="translate(0 -5.272)"/>
        <path id="Trazado_3795" d="M245.976 649.034h1.74l3.306 4.623h.018v-4.623h1.567v7.7h-1.723l-3.32-4.618h-.022v4.618h-1.565v-7.7z" class="cls-5" transform="translate(-3.952 -5.272)"/>
        <path id="Trazado_3796" d="M257.938 649.034h2.087v7.7h-2.087v-7.7z" class="cls-5" transform="translate(-7.909 -5.272)"/>
        <path id="Trazado_3797" d="M262 649.034h2.21l2.045 5.609h.022l2-5.609h1.382l-2.756 7.7h-2.085l-2.816-7.7z" class="cls-5" transform="translate(-9.252 -5.272)"/>
        <path id="Trazado_3798" d="M274.289 649.034h5.319v1.278h-3.238v1.869h2.661v1.153h-2.661v2.125h3.5v1.275h-5.579v-7.7z" class="cls-5" transform="translate(-13.318 -5.272)"/>
        <path id="Trazado_3799" d="M285.978 650.312h.637c.925 0 1.161.344 1.161.869 0 .566-.39 1.324-1.107 1.324h-.691v-2.193zm-1.948 6.422h1.948v-3.077h.737l1.674 3.077h2.511l-2.5-3.578a2.5 2.5 0 0 0 1.45-2.2 1.94 1.94 0 0 0-2.119-1.924h-3.7v7.7z" class="cls-5" transform="translate(-16.54 -5.272)"/>
        <path id="Trazado_3800" d="M294.586 655.094a5.752 5.752 0 0 0 2.112.457c.545 0 1.293-.149 1.293-.842 0-1.243-3.477-1.375-3.477-3.807 0-1.542 1.406-2.165 2.773-2.165a12.759 12.759 0 0 1 2.315.238v1.46a6.184 6.184 0 0 0-2-.411c-.4 0-1.005.156-1.005.66 0 1.155 3.593 1.312 3.593 3.819 0 .786-.406 2.33-3.186 2.33a14.54 14.54 0 0 1-2.422-.2v-1.542z" class="cls-5" transform="translate(-20.007 -5.174)"/>
        <path id="Trazado_3801" d="M304.115 649.034h2.078v7.7h-2.078v-7.7z" class="cls-5" transform="translate(-23.183 -5.272)"/>
        <path id="Trazado_3802" d="M310.9 650.315h-2.826v-1.281h7.724v1.281h-2.819v6.419H310.9v-6.419z" class="cls-5" transform="translate(-24.492 -5.272)"/>
        <path id="Trazado_3803" d="M320.494 653.565l1.051-2.736 1.065 2.736zm-2.613 3.169h1.387l.766-1.957h3.043l.756 1.957h2.089l-2.979-7.7h-2.077l-2.985 7.7z" class="cls-5" transform="translate(-27.737 -5.272)"/>
        <path id="Trazado_3804" d="M332.766 650.312h.632c.932 0 1.163.344 1.163.869a1.256 1.256 0 0 1-1.11 1.324h-.685v-2.193zm-1.953 6.422h1.953v-3.077h.729l1.68 3.077h2.514l-2.5-3.578a2.5 2.5 0 0 0 1.46-2.2 1.944 1.944 0 0 0-2.128-1.924h-3.7v7.7z" class="cls-5" transform="translate(-32.014 -5.272)"/>
        <path id="Trazado_3805" d="M341.983 649.034h2.076v7.7h-2.076v-7.7z" class="cls-5" transform="translate(-35.709 -5.272)"/>
        <path id="Trazado_3806" d="M348.585 652.789c0-1.235.542-2.766 2.015-2.766s2 1.532 2 2.766-.538 2.762-2 2.762-2.015-1.523-2.015-2.762zm-2.2 0c0 2.56 1.687 4.042 4.215 4.042s4.213-1.482 4.213-4.042-1.675-4.052-4.213-4.052-4.215 1.492-4.215 4.052z" class="cls-5" transform="translate(-37.165 -5.174)"/>
        <path id="Trazado_3807" d="M305.31 717.256l.116-.628a2.619 2.619 0 0 0 .837.187q.525 0 .525-.395a.365.365 0 0 0-.12-.279 2.868 2.868 0 0 0-.27-.225c-.145-.106-.256-.2-.343-.266a1.69 1.69 0 0 1-.194-.2.627.627 0 0 1-.147-.417.961.961 0 0 1 .075-.353 1.108 1.108 0 0 1 .227-.342 1.234 1.234 0 0 1 .412-.261 1.647 1.647 0 0 1 .585-.092 3.068 3.068 0 0 1 .926.142l-.115.566a2.387 2.387 0 0 0-.794-.173.721.721 0 0 0-.324.07.245.245 0 0 0-.144.234.3.3 0 0 0 .106.234c.017.015.092.073.236.184s.266.212.375.312a1.287 1.287 0 0 1 .256.259.7.7 0 0 1 .153.453 1.074 1.074 0 0 1-.122.47 1.1 1.1 0 0 1-.465.429 1.971 1.971 0 0 1-.922.181h-.142l-.108-.008a1.434 1.434 0 0 1-.207-.024c-.112-.013-.25-.029-.411-.054z" class="cls-5" transform="translate(-23.579 -26.756)"/>
        <path id="Trazado_3808" d="M309.238 717.18l.47-2.413h.852l-.47 2.413zm.549-2.784l.135-.677h.851l-.137.677z" class="cls-5" transform="translate(-24.878 -26.668)"/>
        <path id="Trazado_3809" d="M311.2 718.522l-.13-.707c.077.038.171.077.293.124a2.613 2.613 0 0 0 .39.12 1.5 1.5 0 0 0 .351.048.647.647 0 0 0 .279-.048.336.336 0 0 0 .153-.141 2.083 2.083 0 0 0 .105-.283l.278-.96h-.106a2.648 2.648 0 0 1-.444.689.826.826 0 0 1-.616.3.475.475 0 0 1-.4-.185.682.682 0 0 1-.15-.448 1.52 1.52 0 0 1 .115-.529 2.471 2.471 0 0 1 .314-.6 1.84 1.84 0 0 1 .5-.475 1.191 1.191 0 0 1 .653-.191c.048 0 .143.007.268.019s.205.013.213.013h.652l-.412 2.254a1.112 1.112 0 0 1-.319.621 1.4 1.4 0 0 1-.578.342 2.507 2.507 0 0 1-.737.1 3.624 3.624 0 0 1-.673-.062zm1.736-2.48l.047-.265a.641.641 0 0 0-.225-.052.5.5 0 0 0-.372.181 1.225 1.225 0 0 0-.253.441 1.49 1.49 0 0 0-.09.478c0 .092.025.137.073.137.1 0 .222-.1.387-.306s.3-.412.433-.614z" class="cls-5" transform="translate(-25.485 -27.17)"/>
        <path id="Trazado_3810" d="M315.337 717.2l.678-3.416h.841l-.667 3.416z" class="cls-5" transform="translate(-26.895 -26.69)"/>
        <path id="Trazado_3811" d="M317.966 717.637a.819.819 0 0 1-.377-.269.688.688 0 0 1-.142-.444 1.587 1.587 0 0 1 .117-.571 1.9 1.9 0 0 1 .327-.564 1.86 1.86 0 0 1 .546-.421 1.577 1.577 0 0 1 .706-.159 1.232 1.232 0 0 1 .485.092.871.871 0 0 1 .369.276.7.7 0 0 1 .142.451 1.585 1.585 0 0 1-.122.587 2.132 2.132 0 0 1-.358.554 1.807 1.807 0 0 1-.54.405 1.506 1.506 0 0 1-.669.154 1.355 1.355 0 0 1-.485-.091zm.4-.549a.287.287 0 0 0 .251.132.469.469 0 0 0 .369-.172 1.119 1.119 0 0 0 .226-.42 1.569 1.569 0 0 0 .073-.463.564.564 0 0 0-.073-.31.257.257 0 0 0-.248-.13.472.472 0 0 0-.374.172 1.053 1.053 0 0 0-.229.422 1.524 1.524 0 0 0-.072.459.632.632 0 0 0 .077.31z" class="cls-5" transform="translate(-27.593 -27.161)"/>
        <path id="Trazado_3812" d="M322.818 717.226l.116-.594a2.732 2.732 0 0 1 .557-.77 12.23 12.23 0 0 1 .932-.808 8.532 8.532 0 0 0 .825-.727.77.77 0 0 0 .259-.529.351.351 0 0 0-.228-.352 1.306 1.306 0 0 0-.515-.094 3.427 3.427 0 0 0-1.151.265l.138-.734a4.431 4.431 0 0 1 1.484-.233 2.1 2.1 0 0 1 .888.163 1.031 1.031 0 0 1 .478.413 1.084 1.084 0 0 1-.159 1.28 4.367 4.367 0 0 1-.944.71c-.429.267-.736.464-.917.6a.976.976 0 0 0-.371.511h2.039l-.191.9z" class="cls-5" transform="translate(-29.37 -26.315)"/>
        <path id="Trazado_3813" d="M329.16 717.226l.744-3.8h-.632l.112-.616 1.851-.159-.9 4.575z" class="cls-5" transform="translate(-31.467 -26.315)"/>
        <path id="Trazado_3814" d="M314.941 682.77a3.831 3.831 0 0 1 .025-.723c1.249.017 2.569-.032 3.786.028v5.891h-4.531a1.8 1.8 0 0 0-1.871-1.986 1.7 1.7 0 0 0-1.562 1.033 1.9 1.9 0 0 0-.021 1.243c.369.932 1.606 1.212 2.662 1.559a16.275 16.275 0 0 1 3.022 1.2 5.606 5.606 0 0 1 3.114 5.324 6.036 6.036 0 0 1-3.163 5.276 6.1 6.1 0 0 1-3.38.832 5.757 5.757 0 0 1-3.068-1.125v.648h-4.122c.014-2.126-.035-4.312.021-6.4 1.5.011 3.067-.035 4.531.018a2.1 2.1 0 0 0 2.135 2.565 1.926 1.926 0 0 0 1.964-2.3c-.244-1.065-1.779-1.406-2.824-1.8-.857-.323-1.733-.585-2.5-.933a5.8 5.8 0 0 1-3.283-3.577 5.964 5.964 0 0 1 1.005-5.369 6.038 6.038 0 0 1 4.552-2.4 5.094 5.094 0 0 1 3.506.985z" class="cls-2" transform="translate(-23.682 -16.1)"/>
        <path id="Trazado_3815" d="M265.3 682.225h9.133v4.286h-2.014c-.056 3.711 0 7.522-.023 11.272.632.053 1.37.006 2.037.025v4.338h-9.154v-4.338h1.94c.057-3.71 0-7.523.021-11.268-.6-.057-1.314-.012-1.961-.029V682.3l.021-.07zm25.723 6.423v-6.423H275.7l-.025.07v4.215h1.869v11.3h-1.869v4.338h15.274v-6.977h-4.8v2.447h-3.283c.013-1.114-.029-2.286.022-3.359h4.512v-4.7h-4.531c.013-.91-.029-1.887.022-2.759 1.083.021 2.227-.028 3.261.027v1.822z" class="cls-2" transform="translate(-10.336 -16.251)"/>
    </g>
</svg>
