<svg xmlns="http://www.w3.org/2000/svg" width="131.406" height="68.73" viewBox="0 0 131.406 68.73">
    <defs>
        <style>
            .cls-4{fill:#2f2e41}.cls-5{fill:#f7a28f}.cls-6{fill:#575a89}.cls-7{fill:#3f3d56}.cls-13{fill:#e6e6e6}
        </style>
    </defs>
    <g id="undraw_researching_22gp" transform="translate(-23.886 -265.428)">
        <path id="Trazado_138" fill="#eb7072" d="M742.594 666.127c-14.216-2.53-29.761-2.11-46.068 0 7.432-6.274 13.847-12.549 6.414-18.823 14.5 2.991 16.528 2.688 32.655 0-3.739 6.274 3.258 12.549 6.999 18.823z" transform="translate(-587.301 -331.969)"/>
        <path id="Trazado_139" fill="#f19895" d="M742.594 666.127c-14.216-2.53-29.761-2.11-46.068 0 7.432-6.274 13.847-12.549 6.414-18.823 14.5 2.991 16.528 2.688 32.655 0-3.739 6.274 3.258 12.549 6.999 18.823z" opacity="0.2" transform="translate(-587.301 -331.969)"/>
        <path id="Trazado_140" fill="#f18c8e" d="M751.454 667.437c-12.076-2.02-25.281-1.684-39.133 0 6.313-5.008 11.762-10.017 5.449-15.025 12.315 2.387 14.04 2.146 27.74 0-3.178 5.008 2.766 10.017 5.944 15.025z" transform="translate(-599.629 -335.956)"/>
        <circle id="Elipse_30" cx="6.434" cy="6.434" r="6.434" class="cls-4" transform="translate(140.791 310.543)"/>
        <path id="Trazado_141" d="M512.056 466.249l4.458.743 2.229 6.439-6.44 3.963-7.43-11.145h7.183z" class="cls-5" transform="translate(-394.038 -156.735)"/>
        <circle id="Elipse_31" cx="10.402" cy="10.402" r="10.402" class="cls-5" transform="translate(120.246 298.617)"/>
        <path id="Trazado_142" d="M397.052 445.919s-25.263 2.724-29.721 2.229a55.213 55.213 0 0 1-6.44-.991s-2.972 3.963-1.486 5.7a10.716 10.716 0 0 0 2.972 2.477 9.114 9.114 0 0 1 4.706 0c1.981.743 22.043 3.963 25.51.991s4.459-10.406 4.459-10.406z" class="cls-4" transform="translate(-323.864 -174.794)"/>
        <path id="Trazado_143" d="M408.19 533.828s-16.594-4.706-19.566-25.51v-1.981s-3.283 5.76-4.458 6.935c-1.362 1.362-6.192 13.622-5.944 14.86a2.967 2.967 0 0 1 0 1.734l-7.183-.743v-2.229s3.839-11.517 4.087-14.241 9.536-21.672 9.536-21.672 3.467-7.183 9.412 0 6.44 12.136 6.44 12.136l7.678 14.861z" class="cls-4" transform="translate(-333.268 -207.471)"/>
        <path id="Trazado_144" d="M321.676 429.879l-7.926-2.724s-7.43-5.449-5.7 0 9.659 17.337 11.888 16.1 4.91-4.312 4.313-4.757-4.551-3.665-2.575-8.619z" class="cls-4" transform="translate(-283.906 -158.26)"/>
        <path id="Trazado_145" d="M335.837 659.259l-6.4 3.125s-7.737 1.19-3.422 3.422 16.218 4.612 16.813 2.529.359-5.54-.267-5.448-4.938.538-6.724-3.628z" class="cls-4" transform="translate(-297.109 -341.3)"/>
        <path id="Trazado_146" d="M522.245 599.274s-3.22 13.87 2.229 16.842 43.591 3.468 46.563-1.982 1.486-5.449 1.486-5.449l-7.926-8.916 6.44-.5a2.312 2.312 0 0 0-2.229-2.229c-2.229-.248-9.164-2.724-15.108-.991s-9.412-3.467-9.412-3.467z" class="cls-6" transform="translate(-450.542 -289.264)"/>
        <path id="Trazado_147" d="M292.468 266.666l-4.211 23.034 28.978-3.467 5.2-20.8z" class="cls-7" transform="translate(-224.976)"/>
        <path id="Trazado_148" fill="#fff" d="M299.058 270.615l-3.467 20.557 26.377-3.1 5.077-18.7z" transform="translate(-230.7 -3.082)"/>
        <path id="Trazado_149" fill="#b3b3b3" d="M287.487 376.241l-.991-.248-.5.991 7.926 22.043.745-.285.245-1.449z" transform="translate(-223.215 -86.293)"/>
        <path id="Trazado_150" fill="#d0cde1" d="M288.257 363.418l7.926 23.034 29.969-4.458-8.916-21.8z" transform="translate(-224.976 -73.965)"/>
        <path id="Trazado_151" d="M306.309 362.675v1.238l22.043-2.477-.252-1.236z" class="cls-7" transform="translate(-239.065 -73.965)"/>
        <path id="Trazado_152" d="M308.565 374.837l3.467 9.659 22.538-2.724-3.963-9.164z" class="cls-7" transform="translate(-240.826 -83.651)"/>
        <path id="Trazado_153" d="M600.6 563.2l-.743-1.981s-5.7-9.907-8.669-7.926 6.192 11.641 6.192 11.641h2.972z" class="cls-5" transform="translate(-504.624 -258.394)"/>
        <path id="Trazado_154" d="M545.779 564.67l-.743-2.972s-1.981-9.164 1.486-8.669 4.458 9.164 4.458 9.164l-.248 1.981z" class="cls-5" transform="translate(-468.628 -258.376)"/>
        <path id="Trazado_155" d="M552.779 599.333s-6.44-.991-6.687.5-1.486 23.777 4.706 24.52 36.9 3.963 33.684-3.715-8.173-6.687-8.173-6.687l-21.052 2.229z" class="cls-6" transform="translate(-469.684 -294.277)"/>
        <path id="Trazado_156" d="M428.335 442.626l-6.563-4.582-4.334 3.344 5.449 5.944z" class="cls-6" transform="translate(-325.797 -134.722)"/>
        <path id="Trazado_157" d="M386.976 479.224l.991 9.412 17.09-.991-14.857-.245z" opacity="0.2" transform="translate(-302.023 -166.861)"/>
        <circle id="Elipse_32" cx="12.384" cy="12.384" r="12.384" class="cls-4" transform="translate(123.4 298.525)"/>
        <path id="Trazado_158" fill="#f19895" d="M328.309 285.723l15.356-.535 1.486-5.657-15.851.478z" transform="translate(-256.235 -11.007)"/>
        <path id="Trazado_159" d="M310.258 316.239l23.281-.743.248-.991-23.281.82z" class="cls-13" transform="translate(-242.147 -38.303)"/>
        <path id="Trazado_160" d="M308 327.521l23.282-.743.248-.991-23.282.82z" class="cls-13" transform="translate(-240.386 -47.108)"/>
        <path id="Trazado_161" d="M306.873 336.547l23.281-.743.248-.991-23.282.82z" class="cls-13" transform="translate(-239.505 -54.153)"/>
    </g>
</svg>
