<svg xmlns="http://www.w3.org/2000/svg" width="52.117" height="52.115" viewBox="0 0 52.117 52.115">
    <defs>
        <style>
            .cls-1{fill:#4b4b4b}
        </style>
    </defs>
    <g id="ubicacion" transform="translate(-4.556 -4.56)">
        <path id="Trazado_3818" d="M62.179 28.723A6.478 6.478 0 1 0 55.7 35.2a6.478 6.478 0 0 0 6.479-6.477zm-11.421 0a4.943 4.943 0 1 1 4.942 4.944 4.943 4.943 0 0 1-4.944-4.944z" class="cls-1" transform="translate(-25.086 -9.933)"/>
        <path id="Trazado_3819" d="M56.622 55.634l-6.254-16.395a.768.768 0 0 0-.717-.494H37.816l.217-.351c4.554-7.54 6.846-14.136 6.813-19.6a14.231 14.231 0 1 0-28.462 0c-.033 5.468 2.259 12.065 6.813 19.6.072.12.144.234.217.351H11.577a.768.768 0 0 0-.717.494L4.607 55.634a.766.766 0 0 0 .717 1.041h50.581a.766.766 0 0 0 .717-1.041zM17.918 18.79a12.7 12.7 0 0 1 25.394 0c.066 10.9-10.122 24.339-12.7 27.562-2.573-3.22-12.761-16.652-12.694-27.562zM30.03 48.063a.767.767 0 0 0 1.169 0 81.413 81.413 0 0 0 5.655-7.785h12.268l.982 2.575-23.975 8.528-8.546-11.1h6.79a81.414 81.414 0 0 0 5.656 7.786zm-3.93 4.954l14.3-5.085 5.548 7.208H20.137zm-14-12.74h3.542l8.961 11.644-9.043 3.219H6.437zM47.9 55.14l-5.97-7.751 8.724-3.1 4.14 10.854z" class="cls-1"/>
    </g>
</svg>
